<svg id="Layer_1" data-name="Layer 1" xmlns="http://www.w3.org/2000/svg" viewBox="0 0 914.15 445.56"><defs><style>.cls-1{fill:#fff;}</style></defs><title>Artboard 1</title><path class="cls-1" d="M57.47,5.21A15.5,15.5,0,0,1,68.61.15,208.46,208.46,0,0,1,245.27,86.6a222.24,222.24,0,0,1,28.25,53.06,211.18,211.18,0,0,1,88.44-92A207.81,207.81,0,0,1,473.59,22.81c49,2.67,96.49,23.72,131.86,57.59,17.76,17.51,33.27,37.65,43.72,60.39A210.59,210.59,0,0,1,802.52,4.86,182.68,182.68,0,0,1,855.67.46a15.43,15.43,0,0,1,12.84,8.9c1.22,2.82,1.23,6,2.28,8.86,26.48,57.65,39.61,120.85,42.72,184,3.14,68.58-5.12,138.12-27.89,203.06-1.44,4.4-3.12,9.21-7.3,11.76-3.94,2.31-8,4.93-12.74,5.16-6.65.42-13.29,1.12-20,1.15A329,329,0,0,1,809.08,420a207.85,207.85,0,0,1-91-41c-25.27-19.21-45.19-44.84-59.55-73a212.39,212.39,0,0,1-61.66,89.59A209.43,209.43,0,0,1,500.71,442c-8.62,1.66-17.39,2.13-26.11,3-14.38,1.54-28.85,0-43.17-1.45a203,203,0,0,1-81.81-30.31c-11.69-6.9-22-15.8-32.08-24.81-14-12.92-25.59-28.24-35.71-44.31-7-12.2-13.42-24.84-17.93-38.18A209.33,209.33,0,0,1,114.51,419.78c-11.89,2-23.93,2.72-35.94,3.49-6.05.34-12.05-.81-18.08-.77-2.92,1.17-5.65,3.11-8.93,3.05A15.57,15.57,0,0,1,35.92,415c-14.54-39.78-23.2-81.58-27.4-123.68C2.69,230.49,6.29,168.68,20.17,109.14A456.49,456.49,0,0,1,51.72,18.35C54,14.13,53.85,8.73,57.47,5.21M80.37,31A300.27,300.27,0,0,0,66.62,62.34c-5.49,15.83-10.87,31.73-14.93,48A530.2,530.2,0,0,0,37.46,263.21c2.23,43.43,9.53,86.71,23,128.11,6.72.35,13.44,1.44,20.18.84,10.4-.75,20.86-1.33,31.11-3.37a178.32,178.32,0,0,0,67.21-29.18,181.75,181.75,0,0,0,66.57-89.86,222.25,222.25,0,0,1-73.84,16.46c-7.84.17-16.05,2-23.67-.44-8.07-3.07-12.08-13.5-8-21.15a15.18,15.18,0,0,1,12.59-8.52,309.18,309.18,0,0,0,42.86-3.65A205.54,205.54,0,0,0,251.38,233a244.81,244.81,0,0,1,2.55-31.42,26.29,26.29,0,0,1-8.19-6.43,199.43,199.43,0,0,0-91.14-51.7c-4.61-1-9.06-3.53-11.36-7.78a15.56,15.56,0,0,1,4.32-20.22,15.9,15.9,0,0,1,14-2.18c30.19,7.79,59,21.38,83.67,40.54-15.12-47-50.92-87-96.1-107A174.78,174.78,0,0,0,80.37,31M798,37.93c-34.85,9.79-66.23,30.8-89.17,58.74a184.49,184.49,0,0,0-28.24,47.87,234.34,234.34,0,0,1,82.89-38,15.5,15.5,0,1,1,7.06,30.14,200.44,200.44,0,0,0-95.92,53.64,36.62,36.62,0,0,1-6.14,5.11c-.49,7.16,1.32,14.18,1.76,21.29a205.81,205.81,0,0,0,46.27,16.07c13.85,3,28,3.79,42.17,4.59,6.5.33,13.8-2,19.52,2.24,7.88,5,9.1,17.2,2.38,23.65-4.83,5.3-12.47,4.79-19,5.1-8.7-.11-17.37-.89-26-1.56-21.83-1.72-43.19-7.41-63.52-15.42,3.75,15.53,8.93,30.8,16.56,44.87,8.93,16.09,19.32,31.6,32.68,44.38,6.81,6.18,13.46,12.57,21,17.86,25.8,18.58,56.58,30.74,88.42,32.92,8.91.76,17.88,1.42,26.81.38C874,343.8,882,293,883,242.28a524.27,524.27,0,0,0-8.91-110.92C867.54,96.92,857.47,63,842.65,31.21c-15,.77-30.18,2.41-44.67,6.72M453.87,53.6A175,175,0,0,0,366.33,81a180.38,180.38,0,0,0-72.26,88.91,186.66,186.66,0,0,0-11.74,61.44c-.17,3.7,1.19,7.28,1,11-1.06,9.6,1,19.15,2.94,28.5a176.33,176.33,0,0,0,35.52,76.41c9.35,12.47,21.14,22.84,33.37,32.4,25.82,18.88,56.57,31.61,88.62,34,9.94.9,20,1.58,29.91.35,46.93-2.32,91.88-25.69,122.36-61.17a182,182,0,0,0,43.35-104.5c.21-5.44-1.19-10.78-1.67-16.17-1.66-7.86-.57-15.9-.84-23.85.67-10.26-2.9-20.08-5.62-29.81A182.44,182.44,0,0,0,567.91,89c-13.9-9.81-28.65-18.69-44.73-24.42A174.1,174.1,0,0,0,453.87,53.6Z"/><path class="cls-1" d="M373.41,231.91a15.64,15.64,0,0,1,14.68,4.21q59,59.07,118.08,118.11c6.53,6,6.16,17.83-.89,23.27a15.54,15.54,0,0,1-14.91,2.56c-5.15-1.76-8.38-6.38-12.17-10q-48.72-48.72-97.43-97.48c-5.5-5.86-11.8-11-16.79-17.3C358.11,246.89,363.4,233.94,373.41,231.91Z"/><path class="cls-1" d="M480.1,269.27A15.73,15.73,0,0,1,496,273.14q42.95,43.08,86,86A15.47,15.47,0,0,1,565,384.33c-3.36-1.42-5.83-4.22-8.34-6.75q-40.76-40.7-81.49-81.41c-3.2-3.1-5.76-7.26-5.55-11.85A15.28,15.28,0,0,1,480.1,269.27Z"/></svg>