<svg id="Layer_1" data-name="Layer 1" xmlns="http://www.w3.org/2000/svg" viewBox="0 0 372.9 68.67"><defs><style>.cls-1{fill:#fcee21;stroke:#faed23;stroke-miterlimit:10;}</style></defs><title>Artboard 1</title><polygon class="cls-1" points="35.69 1.28 46.36 22.9 70.21 26.36 52.95 43.19 57.02 66.94 35.69 55.73 14.36 66.94 18.43 43.19 1.17 26.36 25.02 22.9 35.69 1.28"/><polygon class="cls-1" points="110.86 1.28 121.53 22.9 145.38 26.36 128.12 43.19 132.2 66.94 110.86 55.73 89.53 66.94 93.6 43.19 76.34 26.36 100.19 22.9 110.86 1.28"/><polygon class="cls-1" points="186.03 1.28 196.7 22.9 220.56 26.36 203.29 43.19 207.37 66.94 186.03 55.73 164.7 66.94 168.77 43.19 151.51 26.36 175.37 22.9 186.03 1.28"/><polygon class="cls-1" points="261.21 1.28 271.87 22.9 295.73 26.36 278.47 43.19 282.54 66.94 261.21 55.73 239.87 66.94 243.95 43.19 226.69 26.36 250.54 22.9 261.21 1.28"/><polygon class="cls-1" points="336.38 1.28 347.05 22.9 370.9 26.36 353.64 43.19 357.71 66.94 336.38 55.73 315.04 66.94 319.12 43.19 301.86 26.36 325.71 22.9 336.38 1.28"/></svg>