<svg id="Layer_1" data-name="Layer 1" xmlns="http://www.w3.org/2000/svg" viewBox="0 0 402.17 72.33"><defs><style>.cls-1{fill:#fcee21;}.cls-1,.cls-2,.cls-3,.cls-4{stroke:#faed23;stroke-miterlimit:10;stroke-width:3px;}.cls-2{fill:#faed23;}.cls-3{fill:#f8ec22;}.cls-4{fill:none;}</style></defs><title>Artboard 1</title><polygon class="cls-1" points="37.86 3.78 48.53 25.4 72.38 28.86 55.12 45.69 59.19 69.44 37.86 58.23 16.53 69.44 20.6 45.69 3.34 28.86 27.19 25.4 37.86 3.78"/><polygon class="cls-2" points="119.03 3.78 129.7 25.4 153.55 28.86 136.29 45.69 140.37 69.44 119.03 58.23 97.7 69.44 101.77 45.69 84.51 28.86 108.36 25.4 119.03 3.78"/><polygon class="cls-3" points="200.2 3.78 210.87 25.4 234.73 28.86 217.46 45.69 221.54 69.44 200.2 58.23 178.87 69.44 182.94 45.69 165.68 28.86 189.54 25.4 200.2 3.78"/><polygon class="cls-4" points="282.38 3.78 293.04 25.4 316.9 28.86 299.64 45.69 303.71 69.44 282.38 58.23 261.04 69.44 265.12 45.69 247.86 28.86 271.71 25.4 282.38 3.78"/><polygon class="cls-4" points="363.55 3.78 374.22 25.4 398.07 28.86 380.81 45.69 384.88 69.44 363.55 58.23 342.21 69.44 346.29 45.69 329.03 28.86 352.88 25.4 363.55 3.78"/></svg>